<?xml version="1.0" encoding="utf-8"?>
<!-- Generator: Adobe Illustrator 22.1.0, SVG Export Plug-In . SVG Version: 6.00 Build 0)  -->
<svg version="1.1" id="Layer_1" xmlns="http://www.w3.org/2000/svg" xmlns:xlink="http://www.w3.org/1999/xlink" x="0px" y="0px"
	 viewBox="0 0 128 128" style="enable-background:new 0 0 128 128;" xml:space="preserve">
<style type="text/css">
	.st0{fill:#DC143C;}
	.st1{fill:#FFFFFF;}
</style>
<g>
	<path class="st0" d="M89.3,121H7V38.7C7,21.2,21.2,7,38.7,7h50.7C106.8,7,121,21.2,121,38.7v50.7C121,106.8,106.8,121,89.3,121z"/>
</g>
<g>
	<path class="st1" d="M86.3,113.1L59.2,73.2H41.6v39.9h-6V19.3h26.2c10.4,0,18.1,2.4,23.1,7.3c5,4.9,7.5,11.5,7.5,19.8
		c0,8-2.3,14.3-6.8,18.8c-4.6,4.6-11.2,7.2-19.9,7.8l27.5,40H86.3z M41.6,68.3h19.8c16.7,0,25-7.2,25-21.7c0-7-2-12.4-5.9-16.2
		c-3.9-3.8-10.3-5.7-19.1-5.7H41.6V68.3z"/>
</g>
</svg>
