<?xml version="1.0" standalone="no"?>
<!DOCTYPE svg PUBLIC "-//W3C//DTD SVG 20010904//EN"
 "http://www.w3.org/TR/2001/REC-SVG-20010904/DTD/svg10.dtd">
<svg version="1.0" xmlns="http://www.w3.org/2000/svg"
 width="700.000000pt" height="700.000000pt" viewBox="0 0 700.000000 700.000000"
 preserveAspectRatio="xMidYMid meet">
<metadata>
Created by potrace 1.11, written by Peter Selinger 2001-2013
</metadata>
<g transform="translate(0.000000,700.000000) scale(0.100000,-0.100000)"
fill="#000000" stroke="none">
<path d="M1975 6610 c-410 -33 -809 -221 -1096 -517 -291 -299 -457 -668 -489
-1086 -6 -72 -10 -1048 -10 -2374 l0 -2253 2253 0 c1326 0 2302 4 2374 10 433
34 823 216 1119 522 256 266 398 549 472 938 14 75 16 259 19 1545 4 1516 2
1645 -37 1837 -93 460 -382 873 -789 1127 -181 114 -390 191 -641 239 -75 14
-257 16 -1580 18 -822 1 -1540 -2 -1595 -6z m1735 -684 c590 -67 973 -303
1184 -731 110 -224 156 -444 156 -739 -1 -439 -122 -769 -375 -1021 -238 -239
-565 -375 -1012 -421 -35 -3 -63 -8 -63 -11 0 -2 335 -492 745 -1089 410 -596
745 -1086 745 -1089 0 -3 -84 -5 -187 -5 l-188 0 -740 1090 -740 1090 -477 0
-478 0 -2 -1092 -3 -1093 -162 -3 -163 -2 0 2565 0 2565 818 0 c636 0 845 -3
942 -14z"/>
<path d="M2280 4461 l0 -1191 638 0 c370 0 675 4 727 10 646 74 1000 392 1067
959 14 124 4 442 -17 536 -101 446 -361 715 -789 815 -222 51 -250 53 -958 57
l-668 4 0 -1190z"/>
</g>
</svg>
